# xmcd CD database file
#
# Track frame offsets:
#	187
#	12772
#	24787
#	40310
#	65375
#	80050
#	93265
#	110232
#	129732
#	144412
#	162342
#
# Disc length: 2451 seconds
#
# Revision: 0
# Processed by: cddbd v1.5.1PL0 Copyright (c) Steve Scherf et al.
# Submitted via: CDex 1.51
#
DISCID=8c09910b
DTITLE=THE MINKS - ALL RIGHT GO
DYEAR=1992
DGENRE=Rock
TTITLE0=BEAT UP THE BEAST
TTITLE1=BIG GAME
TTITLE2=その手で
TTITLE3=この東京で
TTITLE4=ダイナマイトボーイ
TTITLE5=ジャンパー
TTITLE6=CHILDREN DO BE DO
TTITLE7=BACK FIRE
TTITLE8=HEY WA
TTITLE9=WHATS THE PARADISE
TTITLE10=ALL RIGHT GO
EXTD=YEAR: 1992
EXTT0=
EXTT1=
EXTT2=
EXTT3=
EXTT4=
EXTT5=
EXTT6=
EXTT7=
EXTT8=
EXTT9=
EXTT10=
PLAYORDER=
